<svg width="776" height="570" viewBox="0 0 776 570" fill="none"
    xmlns="http://www.w3.org/2000/svg">
    <path d="M255.213 246.24C257.293 235.2 259.333 224.36 261.333 213.72C262.053 209.24 262.853 204.6 263.733 199.8C264.613 194.92 265.453 190.12 266.253 185.4C267.053 180.68 267.813 176.12 268.533 171.72C269.253 167.24 269.893 163.16 270.453 159.48L289.893 158.16C288.533 163.76 287.173 169.6 285.813 175.68C284.533 181.76 283.333 187.68 282.213 193.44L294.093 192.12C295.213 186.44 296.213 180.96 297.093 175.68C297.973 170.32 299.133 164.8 300.573 159.12C302.413 158.8 304.453 158.56 306.693 158.4C308.933 158.16 311.013 157.96 312.933 157.8C314.853 157.64 316.453 157.52 317.733 157.44C319.093 157.28 319.773 157.2 319.773 157.2C318.653 160.8 317.573 164.76 316.533 169.08C315.573 173.32 314.613 177.76 313.653 182.4C312.693 186.96 311.773 191.6 310.893 196.32C310.013 201.04 309.213 205.52 308.493 209.76C306.733 219.92 305.093 230.32 303.573 240.96L284.853 243.12C285.893 238.32 286.813 233.64 287.613 229.08C288.413 225.24 289.213 221.24 290.013 217.08C290.893 212.92 291.573 209.36 292.053 206.4L280.413 207.48C279.853 210.52 279.173 214.04 278.373 218.04C277.653 222.04 276.973 225.84 276.333 229.44C275.453 233.76 274.573 238.08 273.693 242.4L255.213 246.24ZM327.619 243.6C326.899 243.6 325.459 243.72 323.299 243.96C321.219 244.12 319.059 244.36 316.819 244.68C314.579 244.92 312.539 245.16 310.699 245.4C308.939 245.64 307.979 245.8 307.819 245.88C308.619 242.44 309.419 238.64 310.219 234.48C311.099 230.24 311.979 225.84 312.859 221.28C313.739 216.64 314.579 211.96 315.379 207.24C316.179 202.52 316.939 197.96 317.659 193.56C319.339 183.32 321.019 172.8 322.699 162L341.419 159C339.579 169.72 337.779 180.24 336.019 190.56C335.299 194.96 334.539 199.52 333.739 204.24C333.019 208.96 332.259 213.64 331.459 218.28C330.739 222.92 330.059 227.44 329.419 231.84C328.779 236.16 328.179 240.08 327.619 243.6ZM355.717 217.56C353.397 217.56 351.077 217.64 348.757 217.8C346.437 217.96 344.117 218.12 341.797 218.28C344.277 208.44 346.677 198.64 348.997 188.88C351.397 179.12 353.877 169.32 356.437 159.48C357.957 159.24 359.677 159 361.597 158.76C363.597 158.52 365.597 158.24 367.597 157.92C369.597 157.6 371.517 157.32 373.357 157.08C375.277 156.84 376.877 156.6 378.157 156.36C373.837 166.44 369.877 176.6 366.277 186.84C362.757 197 359.237 207.24 355.717 217.56ZM356.917 236.4C356.917 237.92 356.557 239.44 355.837 240.96C355.197 242.48 354.237 243.84 352.957 245.04C351.677 246.16 350.077 247.04 348.157 247.68C346.237 248.4 344.037 248.76 341.557 248.76C339.877 248.76 338.357 248.44 336.997 247.8C335.637 247.16 334.517 246.32 333.637 245.28C332.837 244.16 332.197 242.92 331.717 241.56C331.237 240.2 330.997 238.84 330.997 237.48C330.997 235.96 331.237 234.52 331.717 233.16C332.197 231.72 332.917 230.48 333.877 229.44C334.917 228.32 336.157 227.4 337.597 226.68C339.117 225.96 340.917 225.6 342.997 225.6C347.637 225.6 351.117 226.72 353.437 228.96C355.757 231.12 356.917 233.6 356.917 236.4ZM64.2647 371.6C63.5447 371.6 62.1447 371.72 60.0647 371.96C57.9847 372.12 55.8247 372.36 53.5847 372.68C51.3447 372.92 49.3047 373.16 47.4647 373.4C45.7047 373.64 44.7447 373.8 44.5847 373.88C45.5447 370.44 46.5047 366.64 47.4647 362.48C48.4247 358.24 49.3847 353.84 50.3447 349.28C51.3847 344.64 52.3447 339.96 53.2247 335.24C54.1847 330.52 55.1047 325.96 55.9847 321.56C57.9847 311.32 59.9447 300.8 61.8647 290L80.5847 287C78.5047 297.72 76.4247 308.24 74.3447 318.56C73.4647 322.96 72.5447 327.52 71.5847 332.24C70.7047 336.96 69.8247 341.64 68.9447 346.28C68.1447 350.92 67.3047 355.44 66.4247 359.84C65.6247 364.16 64.9047 368.08 64.2647 371.6ZM98.0081 316.52C98.0881 316.52 97.6481 316.52 96.6881 316.52C95.7281 316.52 94.5281 316.6 93.0881 316.76C91.6481 316.84 90.0481 316.92 88.2881 317C86.5281 317.08 84.8881 317.2 83.3681 317.36C81.9281 317.44 80.6881 317.52 79.6481 317.6C78.6081 317.6 78.0881 317.6 78.0881 317.6C78.4081 316.64 78.8081 315.36 79.2881 313.76C79.8481 312.08 80.4081 310.28 80.9681 308.36C81.6081 306.36 82.2481 304.28 82.8881 302.12C83.6081 299.96 84.2881 297.84 84.9281 295.76C86.3681 290.8 87.9681 285.52 89.7281 279.92L99.4481 280.16L110.248 279.92C108.328 285.44 106.608 290.64 105.088 295.52C104.368 297.52 103.648 299.6 102.928 301.76C102.208 303.84 101.528 305.84 100.888 307.76C100.328 309.6 99.7681 311.28 99.2081 312.8C98.7281 314.32 98.3281 315.56 98.0081 316.52ZM89.9859 373.28C93.5059 362.64 96.8659 352.2 100.066 341.96C101.426 337.64 102.826 333.12 104.266 328.4C105.706 323.68 107.146 319 108.586 314.36C110.026 309.72 111.346 305.24 112.546 300.92C113.826 296.6 114.946 292.6 115.906 288.92C120.306 288.92 124.466 288.68 128.386 288.2C132.306 287.72 136.546 287.28 141.106 286.88C140.866 288.64 140.586 290.64 140.266 292.88C140.026 295.04 139.706 297.32 139.306 299.72C138.986 302.12 138.626 304.6 138.226 307.16C137.826 309.72 137.346 313 136.786 317C136.226 321 135.466 326 134.506 332H136.066C138.386 325.92 140.306 320.88 141.826 316.88C143.346 312.8 144.586 309.48 145.546 306.92C146.506 304.36 147.466 301.88 148.426 299.48C149.466 297 150.426 294.68 151.306 292.52C152.266 290.28 153.146 288.32 153.946 286.64C155.946 286.48 157.826 286.28 159.586 286.04C161.346 285.8 163.106 285.56 164.866 285.32C166.626 285 168.386 284.72 170.146 284.48C171.986 284.16 173.986 283.8 176.146 283.4C175.346 288.04 174.586 292.8 173.866 297.68C173.146 302.56 172.506 307.44 171.946 312.32C171.386 317.12 170.826 321.88 170.266 326.6C169.786 331.32 169.346 335.8 168.946 340.04C167.986 349.96 167.146 359.64 166.426 369.08L145.546 372.8C145.546 372.4 145.586 371.32 145.666 369.56C145.826 367.8 145.986 365.64 146.146 363.08C146.386 360.52 146.666 357.68 146.986 354.56C147.386 351.44 147.746 348.32 148.066 345.2C148.466 342.08 148.866 339.08 149.266 336.2C149.666 333.24 150.066 330.72 150.466 328.64H149.386C148.266 332 147.026 335.56 145.666 339.32C144.306 343 142.906 346.76 141.466 350.6C140.106 354.44 138.746 358.2 137.386 361.88C136.026 365.56 134.826 369.08 133.786 372.44C130.986 372.52 128.586 372.64 126.586 372.8C124.586 372.88 122.266 373 119.626 373.16L123.466 328.64H121.666C121.506 329.68 121.106 331.44 120.466 333.92C119.826 336.32 119.066 339.12 118.186 342.32C117.386 345.44 116.506 348.72 115.546 352.16C114.586 355.52 113.666 358.68 112.786 361.64C111.986 364.52 111.306 366.92 110.746 368.84C110.186 370.68 109.866 371.72 109.786 371.96L89.9859 373.28ZM190.96 374.12C193.36 363.32 195.64 352.76 197.8 342.44C198.68 338.12 199.6 333.56 200.56 328.76C201.52 323.96 202.44 319.24 203.32 314.6C204.2 309.96 205.04 305.48 205.84 301.16C206.64 296.84 207.32 292.88 207.88 289.28C210.2 288.56 212.48 287.96 214.72 287.48C216.96 286.92 219.24 286.44 221.56 286.04C223.96 285.64 226.2 285.44 228.28 285.44C231.88 285.44 234.88 286.04 237.28 287.24C239.76 288.44 241.76 290.08 243.28 292.16C244.8 294.16 245.88 296.52 246.52 299.24C247.16 301.96 247.48 304.88 247.48 308C247.48 312.48 246.64 316.8 244.96 320.96C243.36 325.12 241.16 328.84 238.36 332.12C235.64 335.32 232.48 337.88 228.88 339.8C225.36 341.72 221.68 342.68 217.84 342.68H216.52C215.88 345.4 215.28 348.36 214.72 351.56C214.16 354.76 213.68 357.72 213.28 360.44C212.72 363.64 212.2 366.84 211.72 370.04L190.96 374.12ZM224.44 299.96C223.56 305.24 222.68 310.24 221.8 314.96C220.92 319.68 219.96 324.72 218.92 330.08C220.2 329.76 221.52 329.04 222.88 327.92C224.32 326.72 225.64 325.2 226.84 323.36C228.04 321.44 229 319.24 229.72 316.76C230.44 314.28 230.8 311.68 230.8 308.96C230.8 306 230.12 303.76 228.76 302.24C227.48 300.72 226.04 299.96 224.44 299.96ZM280.949 371.6C278.949 371.92 276.749 372.28 274.349 372.68C271.949 373.08 269.789 373.44 267.869 373.76C268.189 371.12 268.509 368.52 268.829 365.96C269.069 363.72 269.269 361.48 269.429 359.24C269.669 357 269.869 355.08 270.029 353.48H259.589L254.789 370.76C253.029 371 250.949 371.28 248.549 371.6C246.149 371.84 243.909 372.08 241.829 372.32C239.269 372.64 236.749 372.96 234.269 373.28C237.469 362.64 240.629 352.16 243.749 341.84C245.029 337.52 246.349 333 247.709 328.28C249.149 323.56 250.549 318.88 251.909 314.24C253.349 309.52 254.709 305 255.989 300.68C257.269 296.36 258.389 292.4 259.349 288.8C264.789 288.4 270.309 287.92 275.909 287.36C281.589 286.8 287.109 286.04 292.469 285.08C292.229 287.64 291.949 290.84 291.629 294.68C291.389 298.44 291.149 302.56 290.909 307.04C290.669 311.52 290.429 316.2 290.189 321.08C289.949 325.96 289.709 330.76 289.469 335.48C289.069 346.52 288.629 358.24 288.149 370.64C285.749 371.04 283.349 371.36 280.949 371.6ZM262.469 341.48C262.789 341.48 263.349 341.48 264.149 341.48C265.029 341.4 265.909 341.36 266.789 341.36C267.749 341.28 268.629 341.24 269.429 341.24C270.229 341.16 270.789 341.08 271.109 341C271.109 340.52 271.149 339.72 271.229 338.6C271.389 337.4 271.509 336.08 271.589 334.64C271.749 333.12 271.909 331.48 272.069 329.72C272.229 327.96 272.389 326.24 272.549 324.56C272.869 320.48 273.269 316.08 273.749 311.36L274.469 300.92L272.669 301.04L269.909 311.36L262.469 341.48ZM285.103 373.28C288.623 362.64 291.983 352.2 295.183 341.96C296.543 337.64 297.943 333.12 299.383 328.4C300.823 323.68 302.263 319 303.703 314.36C305.143 309.72 306.463 305.24 307.663 300.92C308.943 296.6 310.063 292.6 311.023 288.92C315.423 288.92 319.583 288.68 323.503 288.2C327.423 287.72 331.663 287.28 336.223 286.88C335.983 288.64 335.703 290.64 335.383 292.88C335.143 295.04 334.823 297.32 334.423 299.72C334.103 302.12 333.743 304.6 333.343 307.16C332.943 309.72 332.463 313 331.903 317C331.343 321 330.583 326 329.623 332H331.183C333.503 325.92 335.423 320.88 336.943 316.88C338.463 312.8 339.703 309.48 340.663 306.92C341.623 304.36 342.583 301.88 343.543 299.48C344.583 297 345.543 294.68 346.423 292.52C347.383 290.28 348.263 288.32 349.063 286.64C351.063 286.48 352.943 286.28 354.703 286.04C356.463 285.8 358.223 285.56 359.983 285.32C361.743 285 363.503 284.72 365.263 284.48C367.103 284.16 369.103 283.8 371.263 283.4C370.463 288.04 369.703 292.8 368.983 297.68C368.263 302.56 367.623 307.44 367.063 312.32C366.503 317.12 365.943 321.88 365.383 326.6C364.903 331.32 364.463 335.8 364.063 340.04C363.103 349.96 362.263 359.64 361.543 369.08L340.663 372.8C340.663 372.4 340.703 371.32 340.783 369.56C340.943 367.8 341.103 365.64 341.263 363.08C341.503 360.52 341.783 357.68 342.103 354.56C342.503 351.44 342.863 348.32 343.183 345.2C343.583 342.08 343.983 339.08 344.383 336.2C344.783 333.24 345.183 330.72 345.583 328.64H344.503C343.383 332 342.143 335.56 340.783 339.32C339.423 343 338.023 346.76 336.583 350.6C335.223 354.44 333.863 358.2 332.503 361.88C331.143 365.56 329.943 369.08 328.903 372.44C326.103 372.52 323.703 372.64 321.703 372.8C319.703 372.88 317.383 373 314.743 373.16L318.583 328.64H316.783C316.623 329.68 316.223 331.44 315.583 333.92C314.943 336.32 314.183 339.12 313.303 342.32C312.503 345.44 311.623 348.72 310.663 352.16C309.703 355.52 308.783 358.68 307.903 361.64C307.103 364.52 306.423 366.92 305.863 368.84C305.303 370.68 304.983 371.72 304.903 371.96L285.103 373.28Z" fill="white"/>
    <path d="M25.623 454.332C25.5762 454.496 25.5059 454.631 25.4121 454.736C25.3184 454.83 25.1895 454.906 25.0254 454.965C24.8613 455.012 24.6562 455.047 24.4102 455.07C24.1758 455.094 23.8828 455.105 23.5312 455.105C23.168 455.105 22.8574 455.094 22.5996 455.07C22.3535 455.047 22.1484 455.012 21.9844 454.965C21.8203 454.906 21.6973 454.83 21.6152 454.736C21.5332 454.631 21.4688 454.496 21.4219 454.332L16.6582 437.158H16.623L12.2285 454.332C12.1934 454.496 12.1348 454.631 12.0527 454.736C11.9707 454.83 11.8535 454.906 11.7012 454.965C11.5488 455.012 11.3496 455.047 11.1035 455.07C10.8691 455.094 10.5645 455.105 10.1895 455.105C9.80273 455.105 9.48047 455.094 9.22266 455.07C8.96484 455.047 8.75391 455.012 8.58984 454.965C8.42578 454.906 8.29688 454.83 8.20312 454.736C8.12109 454.631 8.0625 454.496 8.02734 454.332L2.01562 433.326C1.94531 433.057 1.9043 432.846 1.89258 432.693C1.89258 432.541 1.93945 432.424 2.0332 432.342C2.13867 432.26 2.30273 432.207 2.52539 432.184C2.74805 432.16 3.04688 432.148 3.42188 432.148C3.78516 432.148 4.07227 432.16 4.2832 432.184C4.49414 432.195 4.65234 432.225 4.75781 432.271C4.875 432.318 4.95117 432.383 4.98633 432.465C5.0332 432.547 5.06836 432.652 5.0918 432.781L10.207 451.836H10.2246L15.0762 432.816C15.1113 432.688 15.1523 432.582 15.1992 432.5C15.2578 432.406 15.3457 432.336 15.4629 432.289C15.5801 432.242 15.7441 432.207 15.9551 432.184C16.1777 432.16 16.4648 432.148 16.8164 432.148C17.1445 432.148 17.4023 432.16 17.5898 432.184C17.7891 432.207 17.9473 432.242 18.0645 432.289C18.1816 432.336 18.2637 432.406 18.3105 432.5C18.3691 432.582 18.416 432.688 18.4512 432.816L23.6719 451.836H23.707L28.7168 432.799C28.752 432.682 28.7871 432.582 28.8223 432.5C28.8574 432.406 28.9277 432.336 29.0332 432.289C29.1504 432.242 29.3086 432.207 29.5078 432.184C29.7188 432.16 29.9941 432.148 30.334 432.148C30.6855 432.148 30.9609 432.166 31.1602 432.201C31.3711 432.225 31.5234 432.277 31.6172 432.359C31.7109 432.441 31.752 432.559 31.7402 432.711C31.7402 432.863 31.7109 433.074 31.6523 433.344L25.623 454.332ZM47.7012 445.965C47.7012 446.422 47.584 446.75 47.3496 446.949C47.127 447.137 46.8691 447.23 46.5762 447.23H36.2051C36.2051 448.109 36.293 448.9 36.4688 449.604C36.6445 450.307 36.9375 450.91 37.3477 451.414C37.7578 451.918 38.291 452.305 38.9473 452.574C39.6035 452.844 40.4062 452.979 41.3555 452.979C42.1055 452.979 42.7734 452.92 43.3594 452.803C43.9453 452.674 44.4492 452.533 44.8711 452.381C45.3047 452.229 45.6562 452.094 45.9258 451.977C46.207 451.848 46.418 451.783 46.5586 451.783C46.6406 451.783 46.7109 451.807 46.7695 451.854C46.8398 451.889 46.8926 451.947 46.9277 452.029C46.9629 452.111 46.9863 452.229 46.998 452.381C47.0215 452.521 47.0332 452.697 47.0332 452.908C47.0332 453.061 47.0273 453.195 47.0156 453.312C47.0039 453.418 46.9863 453.518 46.9629 453.611C46.9512 453.693 46.9219 453.77 46.875 453.84C46.8398 453.91 46.7871 453.98 46.7168 454.051C46.6582 454.109 46.4707 454.215 46.1543 454.367C45.8379 454.508 45.4277 454.648 44.9238 454.789C44.4199 454.93 43.834 455.053 43.166 455.158C42.5098 455.275 41.8066 455.334 41.0566 455.334C39.7559 455.334 38.6133 455.152 37.6289 454.789C36.6562 454.426 35.8359 453.887 35.168 453.172C34.5 452.457 33.9961 451.561 33.6562 450.482C33.3164 449.404 33.1465 448.15 33.1465 446.721C33.1465 445.361 33.3223 444.143 33.6738 443.064C34.0254 441.975 34.5293 441.055 35.1855 440.305C35.8535 439.543 36.6562 438.963 37.5938 438.564C38.5312 438.154 39.5801 437.949 40.7402 437.949C41.9824 437.949 43.0371 438.148 43.9043 438.547C44.7832 438.945 45.5039 439.484 46.0664 440.164C46.6289 440.832 47.0391 441.623 47.2969 442.537C47.5664 443.439 47.7012 444.406 47.7012 445.438V445.965ZM44.7832 445.104C44.8184 443.58 44.4785 442.385 43.7637 441.518C43.0605 440.65 42.0117 440.217 40.6172 440.217C39.9023 440.217 39.2754 440.352 38.7363 440.621C38.1973 440.891 37.7461 441.248 37.3828 441.693C37.0195 442.139 36.7383 442.66 36.5391 443.258C36.3398 443.844 36.2285 444.459 36.2051 445.104H44.7832ZM55.0312 454.561C55.0312 454.654 55.0078 454.736 54.9609 454.807C54.9141 454.865 54.8379 454.918 54.7324 454.965C54.627 455.012 54.4805 455.047 54.293 455.07C54.1055 455.094 53.8652 455.105 53.5723 455.105C53.291 455.105 53.0566 455.094 52.8691 455.07C52.6816 455.047 52.5293 455.012 52.4121 454.965C52.3066 454.918 52.2305 454.865 52.1836 454.807C52.1484 454.736 52.1309 454.654 52.1309 454.561V431.076C52.1309 430.982 52.1484 430.9 52.1836 430.83C52.2305 430.76 52.3066 430.701 52.4121 430.654C52.5293 430.607 52.6816 430.572 52.8691 430.549C53.0566 430.525 53.291 430.514 53.5723 430.514C53.8652 430.514 54.1055 430.525 54.293 430.549C54.4805 430.572 54.627 430.607 54.7324 430.654C54.8379 430.701 54.9141 430.76 54.9609 430.83C55.0078 430.9 55.0312 430.982 55.0312 431.076V454.561ZM71.7656 452.152C71.7656 452.352 71.7598 452.527 71.748 452.68C71.7363 452.82 71.7129 452.943 71.6777 453.049C71.6543 453.143 71.6191 453.23 71.5723 453.312C71.5371 453.383 71.4434 453.494 71.291 453.646C71.1504 453.787 70.9043 453.969 70.5527 454.191C70.2012 454.402 69.8027 454.596 69.3574 454.771C68.9238 454.936 68.4492 455.07 67.9336 455.176C67.418 455.281 66.8848 455.334 66.334 455.334C65.1973 455.334 64.1895 455.146 63.3105 454.771C62.4316 454.396 61.6934 453.852 61.0957 453.137C60.5098 452.41 60.0586 451.525 59.7422 450.482C59.4375 449.428 59.2852 448.215 59.2852 446.844C59.2852 445.285 59.4727 443.949 59.8477 442.836C60.2344 441.711 60.7559 440.791 61.4121 440.076C62.0801 439.361 62.8594 438.834 63.75 438.494C64.6523 438.143 65.625 437.967 66.668 437.967C67.1719 437.967 67.6582 438.014 68.127 438.107C68.6074 438.201 69.0469 438.324 69.4453 438.477C69.8438 438.629 70.1953 438.805 70.5 439.004C70.8164 439.203 71.0449 439.373 71.1855 439.514C71.3262 439.654 71.4199 439.766 71.4668 439.848C71.5254 439.93 71.5723 440.029 71.6074 440.146C71.6426 440.252 71.666 440.375 71.6777 440.516C71.6895 440.656 71.6953 440.832 71.6953 441.043C71.6953 441.5 71.6426 441.822 71.5371 442.01C71.4316 442.186 71.3027 442.273 71.1504 442.273C70.9746 442.273 70.7695 442.18 70.5352 441.992C70.3125 441.793 70.0254 441.576 69.6738 441.342C69.3223 441.107 68.8945 440.896 68.3906 440.709C67.8984 440.51 67.3125 440.41 66.6328 440.41C65.2383 440.41 64.166 440.949 63.416 442.027C62.6777 443.094 62.3086 444.646 62.3086 446.686C62.3086 447.705 62.4023 448.602 62.5898 449.375C62.7891 450.137 63.0762 450.775 63.4512 451.291C63.8262 451.807 64.2832 452.193 64.8223 452.451C65.373 452.697 66 452.82 66.7031 452.82C67.3711 452.82 67.957 452.715 68.4609 452.504C68.9648 452.293 69.3984 452.064 69.7617 451.818C70.1367 451.561 70.4473 451.332 70.6934 451.133C70.9512 450.922 71.1504 450.816 71.291 450.816C71.373 450.816 71.4434 450.84 71.502 450.887C71.5605 450.934 71.6074 451.016 71.6426 451.133C71.6895 451.238 71.7188 451.379 71.7305 451.555C71.7539 451.719 71.7656 451.918 71.7656 452.152ZM90.0117 446.475C90.0117 447.764 89.8418 448.953 89.502 450.043C89.1621 451.121 88.6523 452.053 87.9727 452.838C87.3047 453.623 86.4609 454.238 85.4414 454.684C84.4336 455.117 83.2617 455.334 81.9258 455.334C80.625 455.334 79.4883 455.141 78.5156 454.754C77.5547 454.367 76.752 453.805 76.1074 453.066C75.4629 452.328 74.9824 451.432 74.666 450.377C74.3496 449.322 74.1914 448.127 74.1914 446.791C74.1914 445.502 74.3555 444.318 74.6836 443.24C75.0234 442.15 75.5273 441.213 76.1953 440.428C76.875 439.643 77.7188 439.033 78.7266 438.6C79.7344 438.166 80.9121 437.949 82.2598 437.949C83.5605 437.949 84.6914 438.143 85.6523 438.529C86.625 438.916 87.4336 439.479 88.0781 440.217C88.7227 440.955 89.2031 441.852 89.5195 442.906C89.8477 443.961 90.0117 445.15 90.0117 446.475ZM86.9531 446.668C86.9531 445.812 86.8711 445.004 86.707 444.242C86.5547 443.48 86.2969 442.812 85.9336 442.238C85.5703 441.664 85.0781 441.213 84.457 440.885C83.8359 440.545 83.0625 440.375 82.1367 440.375C81.2812 440.375 80.543 440.527 79.9219 440.832C79.3125 441.137 78.8086 441.57 78.4102 442.133C78.0117 442.684 77.7129 443.34 77.5137 444.102C77.3262 444.863 77.2324 445.695 77.2324 446.598C77.2324 447.465 77.3086 448.279 77.4609 449.041C77.625 449.803 77.8887 450.471 78.252 451.045C78.627 451.607 79.125 452.059 79.7461 452.398C80.3672 452.727 81.1406 452.891 82.0664 452.891C82.9102 452.891 83.6426 452.738 84.2637 452.434C84.8848 452.129 85.3945 451.701 85.793 451.15C86.1914 450.6 86.4844 449.943 86.6719 449.182C86.8594 448.42 86.9531 447.582 86.9531 446.668ZM117.75 454.561C117.75 454.654 117.727 454.736 117.68 454.807C117.633 454.865 117.557 454.918 117.451 454.965C117.346 455.012 117.199 455.047 117.012 455.07C116.824 455.094 116.59 455.105 116.309 455.105C116.016 455.105 115.775 455.094 115.588 455.07C115.4 455.047 115.248 455.012 115.131 454.965C115.025 454.918 114.949 454.865 114.902 454.807C114.855 454.736 114.832 454.654 114.832 454.561V444.945C114.832 444.277 114.773 443.668 114.656 443.117C114.539 442.566 114.352 442.092 114.094 441.693C113.836 441.295 113.508 440.99 113.109 440.779C112.711 440.568 112.242 440.463 111.703 440.463C111.035 440.463 110.361 440.721 109.682 441.236C109.014 441.752 108.275 442.508 107.467 443.504V454.561C107.467 454.654 107.443 454.736 107.396 454.807C107.35 454.865 107.268 454.918 107.15 454.965C107.045 455.012 106.898 455.047 106.711 455.07C106.523 455.094 106.289 455.105 106.008 455.105C105.738 455.105 105.504 455.094 105.305 455.07C105.117 455.047 104.965 455.012 104.848 454.965C104.742 454.918 104.666 454.865 104.619 454.807C104.584 454.736 104.566 454.654 104.566 454.561V444.945C104.566 444.277 104.502 443.668 104.373 443.117C104.244 442.566 104.051 442.092 103.793 441.693C103.535 441.295 103.207 440.99 102.809 440.779C102.422 440.568 101.959 440.463 101.42 440.463C100.752 440.463 100.078 440.721 99.3984 441.236C98.7188 441.752 97.9805 442.508 97.1836 443.504V454.561C97.1836 454.654 97.1602 454.736 97.1133 454.807C97.0664 454.865 96.9902 454.918 96.8848 454.965C96.7793 455.012 96.6328 455.047 96.4453 455.07C96.2578 455.094 96.0176 455.105 95.7246 455.105C95.4434 455.105 95.209 455.094 95.0215 455.07C94.834 455.047 94.6816 455.012 94.5645 454.965C94.459 454.918 94.3828 454.865 94.3359 454.807C94.3008 454.736 94.2832 454.654 94.2832 454.561V438.74C94.2832 438.646 94.3008 438.57 94.3359 438.512C94.3711 438.441 94.4414 438.383 94.5469 438.336C94.6523 438.277 94.7871 438.242 94.9512 438.23C95.1152 438.207 95.332 438.195 95.6016 438.195C95.8594 438.195 96.0703 438.207 96.2344 438.23C96.4102 438.242 96.5449 438.277 96.6387 438.336C96.7324 438.383 96.7969 438.441 96.832 438.512C96.8789 438.57 96.9023 438.646 96.9023 438.74V440.832C97.793 439.836 98.6543 439.109 99.4863 438.652C100.33 438.184 101.18 437.949 102.035 437.949C102.691 437.949 103.277 438.025 103.793 438.178C104.32 438.33 104.783 438.547 105.182 438.828C105.58 439.098 105.92 439.426 106.201 439.812C106.482 440.188 106.717 440.609 106.904 441.078C107.432 440.504 107.93 440.018 108.398 439.619C108.879 439.221 109.336 438.898 109.77 438.652C110.215 438.406 110.643 438.23 111.053 438.125C111.475 438.008 111.896 437.949 112.318 437.949C113.338 437.949 114.193 438.131 114.885 438.494C115.576 438.846 116.133 439.32 116.555 439.918C116.988 440.516 117.293 441.219 117.469 442.027C117.656 442.824 117.75 443.668 117.75 444.559V454.561ZM136.541 445.965C136.541 446.422 136.424 446.75 136.189 446.949C135.967 447.137 135.709 447.23 135.416 447.23H125.045C125.045 448.109 125.133 448.9 125.309 449.604C125.484 450.307 125.777 450.91 126.188 451.414C126.598 451.918 127.131 452.305 127.787 452.574C128.443 452.844 129.246 452.979 130.195 452.979C130.945 452.979 131.613 452.92 132.199 452.803C132.785 452.674 133.289 452.533 133.711 452.381C134.145 452.229 134.496 452.094 134.766 451.977C135.047 451.848 135.258 451.783 135.398 451.783C135.48 451.783 135.551 451.807 135.609 451.854C135.68 451.889 135.732 451.947 135.768 452.029C135.803 452.111 135.826 452.229 135.838 452.381C135.861 452.521 135.873 452.697 135.873 452.908C135.873 453.061 135.867 453.195 135.855 453.312C135.844 453.418 135.826 453.518 135.803 453.611C135.791 453.693 135.762 453.77 135.715 453.84C135.68 453.91 135.627 453.98 135.557 454.051C135.498 454.109 135.311 454.215 134.994 454.367C134.678 454.508 134.268 454.648 133.764 454.789C133.26 454.93 132.674 455.053 132.006 455.158C131.35 455.275 130.646 455.334 129.896 455.334C128.596 455.334 127.453 455.152 126.469 454.789C125.496 454.426 124.676 453.887 124.008 453.172C123.34 452.457 122.836 451.561 122.496 450.482C122.156 449.404 121.986 448.15 121.986 446.721C121.986 445.361 122.162 444.143 122.514 443.064C122.865 441.975 123.369 441.055 124.025 440.305C124.693 439.543 125.496 438.963 126.434 438.564C127.371 438.154 128.42 437.949 129.58 437.949C130.822 437.949 131.877 438.148 132.744 438.547C133.623 438.945 134.344 439.484 134.906 440.164C135.469 440.832 135.879 441.623 136.137 442.537C136.406 443.439 136.541 444.406 136.541 445.438V445.965ZM133.623 445.104C133.658 443.58 133.318 442.385 132.604 441.518C131.9 440.65 130.852 440.217 129.457 440.217C128.742 440.217 128.115 440.352 127.576 440.621C127.037 440.891 126.586 441.248 126.223 441.693C125.859 442.139 125.578 442.66 125.379 443.258C125.18 443.844 125.068 444.459 125.045 445.104H133.623ZM157.354 453.4C157.354 453.74 157.33 454.01 157.283 454.209C157.236 454.408 157.166 454.555 157.072 454.648C156.979 454.742 156.838 454.83 156.65 454.912C156.463 454.994 156.246 455.059 156 455.105C155.766 455.164 155.514 455.211 155.244 455.246C154.975 455.281 154.705 455.299 154.436 455.299C153.615 455.299 152.912 455.193 152.326 454.982C151.74 454.76 151.26 454.432 150.885 453.998C150.51 453.553 150.234 452.996 150.059 452.328C149.895 451.648 149.812 450.852 149.812 449.938V440.691H147.598C147.422 440.691 147.281 440.598 147.176 440.41C147.07 440.223 147.018 439.918 147.018 439.496C147.018 439.273 147.029 439.086 147.053 438.934C147.088 438.781 147.129 438.658 147.176 438.564C147.223 438.459 147.281 438.389 147.352 438.354C147.434 438.307 147.521 438.283 147.615 438.283H149.812V434.521C149.812 434.439 149.83 434.363 149.865 434.293C149.912 434.223 149.988 434.164 150.094 434.117C150.211 434.059 150.363 434.018 150.551 433.994C150.738 433.971 150.973 433.959 151.254 433.959C151.547 433.959 151.787 433.971 151.975 433.994C152.162 434.018 152.309 434.059 152.414 434.117C152.52 434.164 152.596 434.223 152.643 434.293C152.689 434.363 152.713 434.439 152.713 434.521V438.283H156.773C156.867 438.283 156.949 438.307 157.02 438.354C157.09 438.389 157.148 438.459 157.195 438.564C157.254 438.658 157.295 438.781 157.318 438.934C157.342 439.086 157.354 439.273 157.354 439.496C157.354 439.918 157.301 440.223 157.195 440.41C157.09 440.598 156.949 440.691 156.773 440.691H152.713V449.516C152.713 450.605 152.871 451.432 153.188 451.994C153.516 452.545 154.096 452.82 154.928 452.82C155.197 452.82 155.438 452.797 155.648 452.75C155.859 452.691 156.047 452.633 156.211 452.574C156.375 452.516 156.516 452.463 156.633 452.416C156.75 452.357 156.855 452.328 156.949 452.328C157.008 452.328 157.061 452.346 157.107 452.381C157.166 452.404 157.207 452.457 157.23 452.539C157.266 452.621 157.295 452.732 157.318 452.873C157.342 453.014 157.354 453.189 157.354 453.4ZM175.547 446.475C175.547 447.764 175.377 448.953 175.037 450.043C174.697 451.121 174.188 452.053 173.508 452.838C172.84 453.623 171.996 454.238 170.977 454.684C169.969 455.117 168.797 455.334 167.461 455.334C166.16 455.334 165.023 455.141 164.051 454.754C163.09 454.367 162.287 453.805 161.643 453.066C160.998 452.328 160.518 451.432 160.201 450.377C159.885 449.322 159.727 448.127 159.727 446.791C159.727 445.502 159.891 444.318 160.219 443.24C160.559 442.15 161.062 441.213 161.73 440.428C162.41 439.643 163.254 439.033 164.262 438.6C165.27 438.166 166.447 437.949 167.795 437.949C169.096 437.949 170.227 438.143 171.188 438.529C172.16 438.916 172.969 439.479 173.613 440.217C174.258 440.955 174.738 441.852 175.055 442.906C175.383 443.961 175.547 445.15 175.547 446.475ZM172.488 446.668C172.488 445.812 172.406 445.004 172.242 444.242C172.09 443.48 171.832 442.812 171.469 442.238C171.105 441.664 170.613 441.213 169.992 440.885C169.371 440.545 168.598 440.375 167.672 440.375C166.816 440.375 166.078 440.527 165.457 440.832C164.848 441.137 164.344 441.57 163.945 442.133C163.547 442.684 163.248 443.34 163.049 444.102C162.861 444.863 162.768 445.695 162.768 446.598C162.768 447.465 162.844 448.279 162.996 449.041C163.16 449.803 163.424 450.471 163.787 451.045C164.162 451.607 164.66 452.059 165.281 452.398C165.902 452.727 166.676 452.891 167.602 452.891C168.445 452.891 169.178 452.738 169.799 452.434C170.42 452.129 170.93 451.701 171.328 451.15C171.727 450.6 172.02 449.943 172.207 449.182C172.395 448.42 172.488 447.582 172.488 446.668ZM211.441 454.561C211.441 454.654 211.418 454.736 211.371 454.807C211.324 454.865 211.248 454.918 211.143 454.965C211.037 455.012 210.891 455.047 210.703 455.07C210.516 455.094 210.281 455.105 210 455.105C209.707 455.105 209.467 455.094 209.279 455.07C209.092 455.047 208.939 455.012 208.822 454.965C208.717 454.918 208.641 454.865 208.594 454.807C208.547 454.736 208.523 454.654 208.523 454.561V444.945C208.523 444.277 208.465 443.668 208.348 443.117C208.23 442.566 208.043 442.092 207.785 441.693C207.527 441.295 207.199 440.99 206.801 440.779C206.402 440.568 205.934 440.463 205.395 440.463C204.727 440.463 204.053 440.721 203.373 441.236C202.705 441.752 201.967 442.508 201.158 443.504V454.561C201.158 454.654 201.135 454.736 201.088 454.807C201.041 454.865 200.959 454.918 200.842 454.965C200.736 455.012 200.59 455.047 200.402 455.07C200.215 455.094 199.98 455.105 199.699 455.105C199.43 455.105 199.195 455.094 198.996 455.07C198.809 455.047 198.656 455.012 198.539 454.965C198.434 454.918 198.357 454.865 198.311 454.807C198.275 454.736 198.258 454.654 198.258 454.561V444.945C198.258 444.277 198.193 443.668 198.064 443.117C197.936 442.566 197.742 442.092 197.484 441.693C197.227 441.295 196.898 440.99 196.5 440.779C196.113 440.568 195.65 440.463 195.111 440.463C194.443 440.463 193.77 440.721 193.09 441.236C192.41 441.752 191.672 442.508 190.875 443.504V454.561C190.875 454.654 190.852 454.736 190.805 454.807C190.758 454.865 190.682 454.918 190.576 454.965C190.471 455.012 190.324 455.047 190.137 455.07C189.949 455.094 189.709 455.105 189.416 455.105C189.135 455.105 188.9 455.094 188.713 455.07C188.525 455.047 188.373 455.012 188.256 454.965C188.15 454.918 188.074 454.865 188.027 454.807C187.992 454.736 187.975 454.654 187.975 454.561V438.74C187.975 438.646 187.992 438.57 188.027 438.512C188.062 438.441 188.133 438.383 188.238 438.336C188.344 438.277 188.479 438.242 188.643 438.23C188.807 438.207 189.023 438.195 189.293 438.195C189.551 438.195 189.762 438.207 189.926 438.23C190.102 438.242 190.236 438.277 190.33 438.336C190.424 438.383 190.488 438.441 190.523 438.512C190.57 438.57 190.594 438.646 190.594 438.74V440.832C191.484 439.836 192.346 439.109 193.178 438.652C194.021 438.184 194.871 437.949 195.727 437.949C196.383 437.949 196.969 438.025 197.484 438.178C198.012 438.33 198.475 438.547 198.873 438.828C199.271 439.098 199.611 439.426 199.893 439.812C200.174 440.188 200.408 440.609 200.596 441.078C201.123 440.504 201.621 440.018 202.09 439.619C202.57 439.221 203.027 438.898 203.461 438.652C203.906 438.406 204.334 438.23 204.744 438.125C205.166 438.008 205.588 437.949 206.01 437.949C207.029 437.949 207.885 438.131 208.576 438.494C209.268 438.846 209.824 439.32 210.246 439.918C210.68 440.516 210.984 441.219 211.16 442.027C211.348 442.824 211.441 443.668 211.441 444.559V454.561ZM223.271 455L221.162 460.818C221.092 461.006 220.91 461.146 220.617 461.24C220.336 461.346 219.902 461.398 219.316 461.398C219.012 461.398 218.766 461.381 218.578 461.346C218.391 461.322 218.244 461.275 218.139 461.205C218.045 461.135 217.992 461.041 217.98 460.924C217.969 460.807 217.998 460.666 218.068 460.502L220.248 455C220.143 454.953 220.043 454.877 219.949 454.771C219.855 454.666 219.791 454.555 219.756 454.438L214.113 439.32C214.02 439.074 213.973 438.881 213.973 438.74C213.973 438.6 214.02 438.488 214.113 438.406C214.207 438.324 214.359 438.271 214.57 438.248C214.781 438.213 215.062 438.195 215.414 438.195C215.766 438.195 216.041 438.207 216.24 438.23C216.439 438.242 216.598 438.271 216.715 438.318C216.832 438.365 216.914 438.436 216.961 438.529C217.02 438.611 217.078 438.729 217.137 438.881L221.654 451.572H221.707L226.066 438.811C226.137 438.588 226.219 438.447 226.312 438.389C226.418 438.318 226.57 438.271 226.77 438.248C226.969 438.213 227.256 438.195 227.631 438.195C227.959 438.195 228.229 438.213 228.439 438.248C228.65 438.271 228.803 438.324 228.896 438.406C229.002 438.488 229.055 438.6 229.055 438.74C229.055 438.881 229.02 439.057 228.949 439.268L223.271 455ZM254.842 438.916C254.842 440.053 254.654 441.078 254.279 441.992C253.904 442.906 253.365 443.686 252.662 444.33C251.971 444.975 251.115 445.473 250.096 445.824C249.088 446.176 247.881 446.352 246.475 446.352H243.891V454.543C243.891 454.637 243.861 454.719 243.803 454.789C243.756 454.859 243.674 454.918 243.557 454.965C243.451 455 243.299 455.029 243.1 455.053C242.912 455.088 242.672 455.105 242.379 455.105C242.086 455.105 241.84 455.088 241.641 455.053C241.453 455.029 241.301 455 241.184 454.965C241.066 454.918 240.984 454.859 240.938 454.789C240.891 454.719 240.867 454.637 240.867 454.543V433.555C240.867 433.086 240.99 432.752 241.236 432.553C241.482 432.354 241.758 432.254 242.062 432.254H246.932C247.424 432.254 247.893 432.277 248.338 432.324C248.795 432.359 249.328 432.447 249.938 432.588C250.559 432.717 251.186 432.969 251.818 433.344C252.463 433.707 253.008 434.158 253.453 434.697C253.898 435.236 254.238 435.863 254.473 436.578C254.719 437.281 254.842 438.061 254.842 438.916ZM251.66 439.162C251.66 438.236 251.484 437.463 251.133 436.842C250.793 436.221 250.365 435.758 249.85 435.453C249.346 435.148 248.818 434.955 248.268 434.873C247.729 434.791 247.201 434.75 246.686 434.75H243.891V443.873H246.615C247.529 443.873 248.285 443.756 248.883 443.521C249.492 443.287 250.002 442.965 250.412 442.555C250.822 442.133 251.133 441.635 251.344 441.061C251.555 440.475 251.66 439.842 251.66 439.162ZM273.105 446.475C273.105 447.764 272.936 448.953 272.596 450.043C272.256 451.121 271.746 452.053 271.066 452.838C270.398 453.623 269.555 454.238 268.535 454.684C267.527 455.117 266.355 455.334 265.02 455.334C263.719 455.334 262.582 455.141 261.609 454.754C260.648 454.367 259.846 453.805 259.201 453.066C258.557 452.328 258.076 451.432 257.76 450.377C257.443 449.322 257.285 448.127 257.285 446.791C257.285 445.502 257.449 444.318 257.777 443.24C258.117 442.15 258.621 441.213 259.289 440.428C259.969 439.643 260.812 439.033 261.82 438.6C262.828 438.166 264.006 437.949 265.354 437.949C266.654 437.949 267.785 438.143 268.746 438.529C269.719 438.916 270.527 439.479 271.172 440.217C271.816 440.955 272.297 441.852 272.613 442.906C272.941 443.961 273.105 445.15 273.105 446.475ZM270.047 446.668C270.047 445.812 269.965 445.004 269.801 444.242C269.648 443.48 269.391 442.812 269.027 442.238C268.664 441.664 268.172 441.213 267.551 440.885C266.93 440.545 266.156 440.375 265.23 440.375C264.375 440.375 263.637 440.527 263.016 440.832C262.406 441.137 261.902 441.57 261.504 442.133C261.105 442.684 260.807 443.34 260.607 444.102C260.42 444.863 260.326 445.695 260.326 446.598C260.326 447.465 260.402 448.279 260.555 449.041C260.719 449.803 260.982 450.471 261.346 451.045C261.721 451.607 262.219 452.059 262.84 452.398C263.461 452.727 264.234 452.891 265.16 452.891C266.004 452.891 266.736 452.738 267.357 452.434C267.979 452.129 268.488 451.701 268.887 451.15C269.285 450.6 269.578 449.943 269.766 449.182C269.953 448.42 270.047 447.582 270.047 446.668ZM286.623 439.777C286.623 440.035 286.617 440.252 286.605 440.428C286.594 440.604 286.57 440.744 286.535 440.85C286.5 440.943 286.453 441.02 286.395 441.078C286.348 441.125 286.277 441.148 286.184 441.148C286.09 441.148 285.973 441.125 285.832 441.078C285.703 441.02 285.551 440.967 285.375 440.92C285.211 440.861 285.023 440.809 284.812 440.762C284.602 440.715 284.373 440.691 284.127 440.691C283.834 440.691 283.547 440.75 283.266 440.867C282.984 440.984 282.686 441.178 282.369 441.447C282.064 441.717 281.742 442.074 281.402 442.52C281.062 442.965 280.688 443.51 280.277 444.154V454.561C280.277 454.654 280.254 454.736 280.207 454.807C280.16 454.865 280.084 454.918 279.979 454.965C279.873 455.012 279.727 455.047 279.539 455.07C279.352 455.094 279.111 455.105 278.818 455.105C278.537 455.105 278.303 455.094 278.115 455.07C277.928 455.047 277.775 455.012 277.658 454.965C277.553 454.918 277.477 454.865 277.43 454.807C277.395 454.736 277.377 454.654 277.377 454.561V438.74C277.377 438.646 277.395 438.57 277.43 438.512C277.465 438.441 277.535 438.383 277.641 438.336C277.746 438.277 277.881 438.242 278.045 438.23C278.209 438.207 278.426 438.195 278.695 438.195C278.953 438.195 279.164 438.207 279.328 438.23C279.504 438.242 279.639 438.277 279.732 438.336C279.826 438.383 279.891 438.441 279.926 438.512C279.973 438.57 279.996 438.646 279.996 438.74V441.043C280.43 440.41 280.834 439.895 281.209 439.496C281.596 439.098 281.959 438.787 282.299 438.564C282.639 438.33 282.973 438.172 283.301 438.09C283.641 437.996 283.98 437.949 284.32 437.949C284.473 437.949 284.643 437.961 284.83 437.984C285.029 437.996 285.234 438.025 285.445 438.072C285.656 438.119 285.844 438.172 286.008 438.23C286.184 438.289 286.307 438.348 286.377 438.406C286.447 438.465 286.494 438.523 286.518 438.582C286.541 438.629 286.559 438.693 286.57 438.775C286.594 438.857 286.605 438.98 286.605 439.145C286.617 439.297 286.623 439.508 286.623 439.777ZM301.758 438.283V436.648C301.758 435.547 301.857 434.604 302.057 433.818C302.268 433.021 302.584 432.371 303.006 431.867C303.428 431.363 303.955 430.994 304.588 430.76C305.232 430.514 305.982 430.391 306.838 430.391C307.236 430.391 307.629 430.432 308.016 430.514C308.414 430.584 308.719 430.666 308.93 430.76C309.141 430.842 309.281 430.918 309.352 430.988C309.422 431.059 309.48 431.152 309.527 431.27C309.574 431.375 309.604 431.51 309.615 431.674C309.639 431.826 309.65 432.014 309.65 432.236C309.65 432.459 309.639 432.641 309.615 432.781C309.604 432.91 309.58 433.016 309.545 433.098C309.51 433.18 309.469 433.238 309.422 433.273C309.375 433.297 309.322 433.309 309.264 433.309C309.17 433.309 308.994 433.256 308.736 433.15C308.49 433.045 308.227 432.963 307.945 432.904C307.664 432.834 307.365 432.799 307.049 432.799C306.615 432.799 306.246 432.869 305.941 433.01C305.637 433.15 305.391 433.373 305.203 433.678C305.016 433.971 304.875 434.357 304.781 434.838C304.699 435.307 304.658 435.881 304.658 436.561V438.283H308.191C308.285 438.283 308.367 438.307 308.438 438.354C308.52 438.389 308.584 438.459 308.631 438.564C308.678 438.658 308.713 438.781 308.736 438.934C308.771 439.086 308.789 439.273 308.789 439.496C308.789 439.918 308.736 440.223 308.631 440.41C308.525 440.598 308.385 440.691 308.209 440.691H304.658V454.561C304.658 454.654 304.635 454.736 304.588 454.807C304.541 454.865 304.465 454.918 304.359 454.965C304.254 455.012 304.107 455.047 303.92 455.07C303.732 455.094 303.492 455.105 303.199 455.105C302.918 455.105 302.684 455.094 302.496 455.07C302.309 455.047 302.156 455.012 302.039 454.965C301.934 454.918 301.857 454.865 301.811 454.807C301.775 454.736 301.758 454.654 301.758 454.561V440.691H293.514V449.516C293.514 450.605 293.672 451.432 293.988 451.994C294.316 452.545 294.896 452.82 295.729 452.82C295.998 452.82 296.238 452.797 296.449 452.75C296.66 452.691 296.848 452.633 297.012 452.574C297.176 452.516 297.316 452.463 297.434 452.416C297.551 452.357 297.656 452.328 297.75 452.328C297.809 452.328 297.861 452.346 297.908 452.381C297.967 452.404 298.008 452.457 298.031 452.539C298.066 452.621 298.096 452.732 298.119 452.873C298.143 453.014 298.154 453.189 298.154 453.4C298.154 453.74 298.131 454.01 298.084 454.209C298.037 454.396 297.967 454.543 297.873 454.648C297.779 454.742 297.639 454.83 297.451 454.912C297.264 454.994 297.047 455.059 296.801 455.105C296.566 455.164 296.314 455.211 296.045 455.246C295.775 455.281 295.506 455.299 295.236 455.299C294.416 455.299 293.713 455.193 293.127 454.982C292.541 454.76 292.061 454.432 291.686 453.998C291.311 453.553 291.035 452.996 290.859 452.328C290.695 451.648 290.613 450.852 290.613 449.938V440.691H288.398C288.223 440.691 288.082 440.598 287.977 440.41C287.871 440.223 287.818 439.918 287.818 439.496C287.818 439.273 287.83 439.086 287.854 438.934C287.889 438.781 287.93 438.658 287.977 438.564C288.023 438.459 288.082 438.389 288.152 438.354C288.234 438.307 288.322 438.283 288.416 438.283H290.613V434.521C290.613 434.439 290.631 434.363 290.666 434.293C290.713 434.223 290.789 434.164 290.895 434.117C291.012 434.059 291.164 434.018 291.352 433.994C291.539 433.971 291.773 433.959 292.055 433.959C292.348 433.959 292.588 433.971 292.775 433.994C292.963 434.018 293.109 434.059 293.215 434.117C293.32 434.164 293.396 434.223 293.443 434.293C293.49 434.363 293.514 434.439 293.514 434.521V438.283H301.758ZM325.91 446.475C325.91 447.764 325.74 448.953 325.4 450.043C325.061 451.121 324.551 452.053 323.871 452.838C323.203 453.623 322.359 454.238 321.34 454.684C320.332 455.117 319.16 455.334 317.824 455.334C316.523 455.334 315.387 455.141 314.414 454.754C313.453 454.367 312.65 453.805 312.006 453.066C311.361 452.328 310.881 451.432 310.564 450.377C310.248 449.322 310.09 448.127 310.09 446.791C310.09 445.502 310.254 444.318 310.582 443.24C310.922 442.15 311.426 441.213 312.094 440.428C312.773 439.643 313.617 439.033 314.625 438.6C315.633 438.166 316.811 437.949 318.158 437.949C319.459 437.949 320.59 438.143 321.551 438.529C322.523 438.916 323.332 439.479 323.977 440.217C324.621 440.955 325.102 441.852 325.418 442.906C325.746 443.961 325.91 445.15 325.91 446.475ZM322.852 446.668C322.852 445.812 322.77 445.004 322.605 444.242C322.453 443.48 322.195 442.812 321.832 442.238C321.469 441.664 320.977 441.213 320.355 440.885C319.734 440.545 318.961 440.375 318.035 440.375C317.18 440.375 316.441 440.527 315.82 440.832C315.211 441.137 314.707 441.57 314.309 442.133C313.91 442.684 313.611 443.34 313.412 444.102C313.225 444.863 313.131 445.695 313.131 446.598C313.131 447.465 313.207 448.279 313.359 449.041C313.523 449.803 313.787 450.471 314.15 451.045C314.525 451.607 315.023 452.059 315.645 452.398C316.266 452.727 317.039 452.891 317.965 452.891C318.809 452.891 319.541 452.738 320.162 452.434C320.783 452.129 321.293 451.701 321.691 451.15C322.09 450.6 322.383 449.943 322.57 449.182C322.758 448.42 322.852 447.582 322.852 446.668ZM333.082 454.561C333.082 454.654 333.059 454.736 333.012 454.807C332.965 454.865 332.889 454.918 332.783 454.965C332.678 455.012 332.531 455.047 332.344 455.07C332.156 455.094 331.916 455.105 331.623 455.105C331.342 455.105 331.107 455.094 330.92 455.07C330.732 455.047 330.58 455.012 330.463 454.965C330.357 454.918 330.281 454.865 330.234 454.807C330.199 454.736 330.182 454.654 330.182 454.561V431.076C330.182 430.982 330.199 430.9 330.234 430.83C330.281 430.76 330.357 430.701 330.463 430.654C330.58 430.607 330.732 430.572 330.92 430.549C331.107 430.525 331.342 430.514 331.623 430.514C331.916 430.514 332.156 430.525 332.344 430.549C332.531 430.572 332.678 430.607 332.783 430.654C332.889 430.701 332.965 430.76 333.012 430.83C333.059 430.9 333.082 430.982 333.082 431.076V454.561ZM341.344 454.561C341.344 454.654 341.32 454.736 341.273 454.807C341.227 454.865 341.15 454.918 341.045 454.965C340.939 455.012 340.793 455.047 340.605 455.07C340.418 455.094 340.178 455.105 339.885 455.105C339.604 455.105 339.369 455.094 339.182 455.07C338.994 455.047 338.842 455.012 338.725 454.965C338.619 454.918 338.543 454.865 338.496 454.807C338.461 454.736 338.443 454.654 338.443 454.561V438.74C338.443 438.658 338.461 438.582 338.496 438.512C338.543 438.441 338.619 438.383 338.725 438.336C338.842 438.289 338.994 438.254 339.182 438.23C339.369 438.207 339.604 438.195 339.885 438.195C340.178 438.195 340.418 438.207 340.605 438.23C340.793 438.254 340.939 438.289 341.045 438.336C341.15 438.383 341.227 438.441 341.273 438.512C341.32 438.582 341.344 438.658 341.344 438.74V454.561ZM341.678 433.396C341.678 434.076 341.549 434.539 341.291 434.785C341.033 435.031 340.559 435.154 339.867 435.154C339.188 435.154 338.719 435.037 338.461 434.803C338.215 434.557 338.092 434.1 338.092 433.432C338.092 432.752 338.221 432.289 338.479 432.043C338.736 431.797 339.211 431.674 339.902 431.674C340.582 431.674 341.045 431.797 341.291 432.043C341.549 432.277 341.678 432.729 341.678 433.396ZM361.418 446.475C361.418 447.764 361.248 448.953 360.908 450.043C360.568 451.121 360.059 452.053 359.379 452.838C358.711 453.623 357.867 454.238 356.848 454.684C355.84 455.117 354.668 455.334 353.332 455.334C352.031 455.334 350.895 455.141 349.922 454.754C348.961 454.367 348.158 453.805 347.514 453.066C346.869 452.328 346.389 451.432 346.072 450.377C345.756 449.322 345.598 448.127 345.598 446.791C345.598 445.502 345.762 444.318 346.09 443.24C346.43 442.15 346.934 441.213 347.602 440.428C348.281 439.643 349.125 439.033 350.133 438.6C351.141 438.166 352.318 437.949 353.666 437.949C354.967 437.949 356.098 438.143 357.059 438.529C358.031 438.916 358.84 439.479 359.484 440.217C360.129 440.955 360.609 441.852 360.926 442.906C361.254 443.961 361.418 445.15 361.418 446.475ZM358.359 446.668C358.359 445.812 358.277 445.004 358.113 444.242C357.961 443.48 357.703 442.812 357.34 442.238C356.977 441.664 356.484 441.213 355.863 440.885C355.242 440.545 354.469 440.375 353.543 440.375C352.688 440.375 351.949 440.527 351.328 440.832C350.719 441.137 350.215 441.57 349.816 442.133C349.418 442.684 349.119 443.34 348.92 444.102C348.732 444.863 348.639 445.695 348.639 446.598C348.639 447.465 348.715 448.279 348.867 449.041C349.031 449.803 349.295 450.471 349.658 451.045C350.033 451.607 350.531 452.059 351.152 452.398C351.773 452.727 352.547 452.891 353.473 452.891C354.316 452.891 355.049 452.738 355.67 452.434C356.291 452.129 356.801 451.701 357.199 451.15C357.598 450.6 357.891 449.943 358.078 449.182C358.266 448.42 358.359 447.582 358.359 446.668Z" fill="white"/>
    <path d="M594.967 352.579C619.089 352.579 638.644 333.024 638.644 308.902C638.644 284.78 619.089 265.225 594.967 265.225C570.844 265.225 551.29 284.78 551.29 308.902C551.29 333.024 570.844 352.579 594.967 352.579Z" fill="#2ADB66"/>
    <path d="M524.15 437.619C524.15 437.619 486.339 444.492 508.337 377.103C530.334 309.715 548.904 298.707 548.904 298.707L524.15 437.601V437.619Z" fill="#5526C4"/>
    <path d="M535.97 322.313C535.97 322.313 505.227 410.038 514.255 436.594C514.255 436.594 519.114 439.068 524.132 437.619C529.15 436.17 557.791 308.584 535.953 322.313H535.97Z" fill="#331889"/>
    <path d="M653.132 326.217C653.132 326.217 669.953 420.427 665.871 455.482L523.532 430.781C523.532 430.781 521.482 423.166 526.394 395.655C531.306 368.145 538.232 317.259 538.232 317.259C538.232 317.259 567.103 317.948 580.372 335.829C580.372 335.829 627.141 304.891 653.114 326.2L653.132 326.217Z" fill="#5526C4"/>
    <path d="M643.237 329.521C643.237 329.521 634.138 413.059 647.655 435.039C647.655 435.039 632.318 449.245 644.05 449.245C655.782 449.245 665.853 455.499 665.853 455.499C665.853 455.499 669.016 404.896 670.058 392.245C671.101 379.595 646.453 321.783 646.453 321.783L643.202 329.521H643.237Z" fill="#331889"/>
    <path d="M535.971 322.313C535.971 322.313 571.432 335.847 579.895 347.279C579.895 347.279 624.42 330.758 643.962 336.766C663.504 342.773 642.389 320.51 642.389 320.51L580.143 328.285C580.143 328.285 549.452 310.121 535.953 322.313H535.971Z" fill="#331889"/>
    <path d="M580.955 328.285C580.955 328.285 568.834 289.095 537.084 291.145C537.084 291.145 531.889 308.354 530.741 317.277C529.592 326.2 576.343 327.596 580.973 343.409V328.285H580.955Z" fill="#5526C4"/>
    <path d="M686.137 408.854V408.819C683.964 399.384 657.655 386.803 657.655 386.803C657.655 386.803 649.492 387.069 640.676 388.659C631.665 390.284 621.964 393.306 619.614 398.889C615.003 409.914 613.943 431.258 635.605 430.869C639.368 430.799 643.397 430.374 647.496 429.668C667.002 426.328 687.851 416.646 686.119 408.854H686.137Z" fill="#331889"/>
    <path d="M692.604 405.038C667.797 291.587 644.05 310.263 644.05 310.263V351.749C644.05 351.749 645.181 367.368 647.142 384.86C655.959 383.27 664.122 383.005 664.122 383.005C664.122 383.005 690.431 395.585 692.604 405.02V405.038Z" fill="#5526C4"/>
    <path d="M643.962 334.098C643.962 334.098 664.457 336.377 669.316 330.493L665.093 322.701L643.962 324.892V334.098Z" fill="#331889"/>
    <path d="M580.955 343.409C580.955 343.409 606.151 326.695 635.799 328.974C665.447 331.253 672.179 331.2 663.503 309.114C654.846 287.028 639.262 293.901 627.123 298.707C615.003 303.513 581.52 320.705 580.937 328.267C580.354 335.829 580.937 343.391 580.937 343.391L580.955 343.409Z" fill="#5526C4"/>
    <path d="M618.837 421.204C631.835 421.204 642.371 414.765 642.371 406.822C642.371 398.879 631.835 392.44 618.837 392.44C605.839 392.44 595.302 398.879 595.302 406.822C595.302 414.765 605.839 421.204 618.837 421.204Z" fill="#2ADB66" stroke="black" stroke-width="5.30061" stroke-miterlimit="10"/>
    <path d="M601.734 413.377C601.734 413.377 617.176 413.377 617.83 412.317C618.484 411.257 614.632 402.069 618.819 395.019C618.819 395.019 623.802 394.878 626.081 395.956C628.36 397.034 628.131 417.052 628.131 417.052C628.131 417.052 613.96 422.176 601.716 413.395L601.734 413.377Z" fill="#1BAF48"/>
    <path d="M692.621 405.073V405.038C690.448 395.602 664.14 383.022 664.14 383.022C664.14 383.022 655.977 383.287 647.16 384.878C638.149 386.503 628.449 389.524 626.099 395.108C621.487 406.133 620.427 427.477 642.089 427.088C645.852 427.017 649.881 426.593 653.98 425.887C673.486 422.547 694.335 412.865 692.604 405.073H692.621Z" fill="#5526C4"/>
    <path d="M658.044 385.302C658.044 385.302 650.004 386.379 648.927 386.574C639.898 388.182 631.7 390.797 627.866 396.804C621.434 406.875 622.194 429.173 643.856 428.784C647.619 428.714 651.648 428.29 655.747 427.583C660.57 426.752 665.482 425.551 670.094 424.067" stroke="black" stroke-width="5.30061" stroke-linecap="round" stroke-linejoin="round"/>
    <path d="M680.112 418.519C688.027 414.614 693.222 410.056 692.321 406.009V405.974C684.14 368.622 676.101 345.582 668.963 331.5C668.981 331.483 669.016 331.447 669.034 331.43L666.242 326.27C667.479 323.108 666.366 318.019 663.238 310.068C654.581 287.982 638.997 294.856 626.858 299.661C614.791 304.45 581.556 321.518 580.69 329.133H580.637C580.001 327.154 567.686 290.103 536.783 292.099C536.783 292.099 531.589 309.309 530.44 318.231C530.299 319.291 530.864 320.263 531.942 321.147C525.193 332.967 516.888 350.936 508.036 378.057C493.778 421.717 504.626 434.191 514.044 437.583C514.644 437.866 511.747 424.862 516.199 423.837C516.358 434.35 545.971 438.096 545.971 438.096L644.05 449.262L665.57 456.454C665.889 453.662 666.083 450.482 666.171 447.018C666.542 441.117 667.055 433.113 667.585 424.968C672.514 423.024 676.878 420.816 680.094 418.537L680.112 418.519Z" stroke="black" stroke-width="5.30061" stroke-linecap="round" stroke-linejoin="round"/>
    <path d="M721.386 176.581C715.008 241.655 653.203 308.036 585.655 301.411C518.09 294.785 470.349 217.679 476.728 152.605C483.106 87.5308 543.038 40.161 610.603 46.7691C678.169 53.3949 727.765 111.507 721.386 176.581Z" fill="#2ADB66" stroke="black" stroke-width="5.30061" stroke-miterlimit="10"/>
    <path d="M587.44 285.261C529.734 279.501 487.099 222.997 478.989 164.902C478.989 227.096 524.08 292.523 585.761 298.69C645.358 304.644 701.138 251.797 715.52 193.702C694.795 246.514 643.061 290.809 587.457 285.261H587.44Z" fill="#1BAF48"/>
    <path d="M702.498 189.903C702.498 168.56 685.2 151.262 663.857 151.262C633.855 151.262 621.204 175.945 618.819 197.36C618.731 198.19 618.678 199.02 618.642 199.816C618.342 204.18 617.812 213.827 617.883 224.163C617.883 224.163 644.368 232.997 658.256 231.231L658.15 231.142C680.147 229.817 702.463 210.275 702.463 189.886L702.498 189.903Z" fill="black"/>
    <path d="M660.199 160.573C662.001 164.743 658.627 170.079 651.594 173.136C644.562 176.192 639.138 176.122 637.336 171.952C635.534 167.782 638.979 162.641 646.011 159.602C653.043 156.563 658.415 156.421 660.217 160.591L660.199 160.573Z" fill="#F8FFFF"/>
    <path d="M493.106 167.217C497.647 146.368 518.214 133.151 539.063 137.675C568.375 144.053 575.496 170.874 573.269 192.289C573.181 193.119 573.057 193.932 572.916 194.727C572.28 199.056 570.76 208.597 568.481 218.668C568.481 218.668 540.724 221.672 527.525 216.989L527.649 216.919C506.429 210.947 488.778 187.094 493.106 167.181V167.217Z" fill="black"/>
    <path d="M530.105 146.703C531.907 150.873 528.532 156.209 521.5 159.266C514.468 162.305 509.043 162.252 507.241 158.082C505.439 153.912 508.884 148.771 515.917 145.732C522.949 142.693 528.32 142.551 530.122 146.721L530.105 146.703Z" fill="#F8FFFF"/>
    <path d="M617.901 254.43C616.929 269.607 604.172 281.092 588.429 279.784C572.704 278.477 560.601 265.101 562.209 249.995C564.347 229.905 578.482 251.249 590.037 252.38C605.215 253.882 619.014 236.673 617.883 254.43H617.901Z" fill="#231F1E"/>
    <path d="M570.725 266.179C570.725 266.179 584.719 285.862 605.232 270.19C605.232 270.19 592.493 253.016 570.725 266.179Z" fill="#FF320A"/>
    <path d="M624.968 51.3807C620.056 50.2676 615.021 49.4548 609.897 48.9424C604.207 48.377 598.589 48.218 593.041 48.43C535.882 50.4973 487.558 92.0894 479.007 148.382C489.838 98.6622 532.119 61.8759 582.917 56.3633C582.687 56.964 582.51 57.5824 582.422 58.2362C581.397 66.2754 592.475 74.3677 607.158 76.2936C621.841 78.2195 634.58 73.2722 635.605 65.233C635.746 64.1375 635.64 63.0244 635.34 61.9466C687.586 79.2973 722.906 130.112 717.517 186.052C717.287 188.366 716.987 190.698 716.633 193.013C717.658 188.278 718.453 183.525 718.877 178.772C724.567 113.698 683.575 64.6146 624.968 51.3984V51.3807Z" fill="#6EFF94"/>
    <path d="M487.894 401.822L592.175 416.416C596.398 417.035 600.249 414.685 600.762 411.151L572.421 337.084C570.601 332.932 569.948 330.193 565.725 329.557L464.006 314.538C459.783 313.92 455.931 316.27 455.419 319.804L481.215 394.295C480.685 397.829 483.689 401.186 487.912 401.822H487.894Z" fill="#EDEDED"/>
    <path d="M484.089 402.075L622.559 422.523C624.76 422.848 626.808 421.327 627.133 419.126L627.135 419.109C627.46 416.908 625.939 414.86 623.739 414.535L485.269 394.087C483.068 393.762 481.02 395.283 480.695 397.484L480.692 397.502C480.367 399.703 481.888 401.75 484.089 402.075Z" fill="#6A6777"/>
    <path d="M508.69 362.067C509.556 368.057 516.712 373.146 523.337 372.015C529.963 370.884 533.108 366.626 532.402 360.619C531.695 354.629 523.532 349.576 516.906 350.724C510.28 351.872 507.842 356.254 508.69 362.085V362.067Z" fill="#F9F9F9"/>
    <path d="M622.759 415.268L600.567 411.981L572.615 335.352C570.813 331.059 570.177 328.214 565.954 327.596L464.271 312.577C460.048 311.959 456.196 314.415 455.648 318.09L481.038 395.178C480.95 395.815 480.985 396.451 481.091 397.051C480.809 397.475 480.614 397.97 480.544 398.5C480.208 400.779 482.063 402.953 484.713 403.341L621.54 423.554C624.173 423.943 626.593 422.406 626.929 420.109C627.265 417.812 625.409 415.656 622.759 415.268V415.268Z" stroke="black" stroke-width="5.30061" stroke-miterlimit="10"/>
    <g filter="url(#filter0_f_34_885)">
        <path d="M643.127 460.875C635.764 457.793 575.709 436.984 558.198 487.227C558.198 487.227 565.241 469.11 561.179 498.738L582.256 509.559C582.717 509.701 583.427 499.695 604.22 516.36C637.095 542.712 686.896 533.609 684.944 485.881C683.791 457.669 677.688 471.058 643.109 460.875" fill="#050423"/>
        <path d="M643.127 460.875C635.764 457.793 575.709 436.984 558.198 487.227C558.198 487.227 565.241 469.11 561.179 498.738L582.256 509.559C582.717 509.701 583.427 499.695 604.22 516.36C637.095 542.712 686.896 533.609 684.944 485.881C683.791 457.669 677.688 471.058 643.109 460.875" stroke="#050423" stroke-width="5.30061" stroke-linecap="round" stroke-linejoin="round"/>
        <path d="M572.445 435.691C556.53 422.161 530.929 423.011 530.929 423.011C530.929 423.011 501.815 424.41 512.087 509.701C512.087 509.701 500.165 510.834 493.423 524.506C488.669 534.158 495.055 548.946 524.365 545.014C546.719 542.004 558.908 502.404 564.319 480.958" fill="#050423"/>
        <path d="M572.445 435.691C556.53 422.161 530.929 423.011 530.929 423.011C530.929 423.011 501.815 424.41 512.087 509.701C512.087 509.701 500.165 510.834 493.423 524.506C488.669 534.158 495.055 548.946 524.365 545.014C546.719 542.004 558.908 502.404 564.319 480.958" stroke="#050423" stroke-width="5.30061" stroke-linecap="round" stroke-linejoin="round"/>
        <path d="M606.704 486.288C601.293 507.735 589.104 547.334 566.75 550.345C537.441 554.294 531.054 539.489 535.808 529.837C542.55 516.165 554.472 515.031 554.472 515.031C544.2 429.723 573.314 428.341 573.314 428.341C573.314 428.341 598.915 427.491 614.83 441.022C614.83 441.022 623.754 445.821 631.72 455.721C639.686 465.621 644.192 466.949 649.692 469.287" fill="#050423"/>
        <path d="M606.704 486.288C601.293 507.735 589.104 547.334 566.75 550.345C537.441 554.294 531.054 539.489 535.808 529.837C542.55 516.165 554.472 515.031 554.472 515.031C544.2 429.723 573.314 428.341 573.314 428.341C573.314 428.341 598.915 427.491 614.83 441.022C614.83 441.022 623.754 445.821 631.72 455.721C639.686 465.621 644.192 466.949 649.692 469.287" stroke="#050423" stroke-width="5.30061" stroke-linecap="round" stroke-linejoin="round"/>
    </g>
    <path d="M622.901 443.343C615.568 440.269 555.76 419.508 538.321 469.634C538.321 469.634 545.335 451.559 541.289 481.119L562.279 491.915C562.739 492.056 563.445 482.073 584.153 498.699C616.893 524.991 666.489 515.909 664.546 468.292C663.397 440.145 657.319 453.503 622.883 443.343" fill="#2ADB66"/>
    <path d="M622.901 443.343C615.568 440.269 555.76 419.508 538.321 469.634C538.321 469.634 545.335 451.559 541.289 481.119L562.279 491.915C562.739 492.056 563.445 482.073 584.153 498.699C616.893 524.991 666.489 515.909 664.546 468.292C663.397 440.145 657.319 453.503 622.883 443.343" stroke="black" stroke-width="5.30061" stroke-linecap="round" stroke-linejoin="round"/>
    <path d="M552.508 418.218C536.66 404.719 511.164 405.568 511.164 405.568C511.164 405.568 482.169 406.963 492.399 492.056C492.399 492.056 480.526 493.187 473.812 506.827C469.077 516.456 475.437 531.21 504.626 527.287C526.889 524.284 539.027 484.776 544.416 463.38" fill="#2ADB66"/>
    <path d="M552.508 418.218C536.66 404.719 511.164 405.568 511.164 405.568C511.164 405.568 482.169 406.963 492.399 492.056C492.399 492.056 480.526 493.187 473.812 506.827C469.077 516.456 475.437 531.21 504.626 527.287C526.889 524.284 539.027 484.776 544.416 463.38" stroke="black" stroke-width="5.30061" stroke-linecap="round" stroke-linejoin="round"/>
    <path d="M586.627 468.698C581.238 490.095 569.099 529.602 546.837 532.606C517.648 536.546 511.287 521.775 516.023 512.145C522.737 498.505 534.61 497.374 534.61 497.374C524.38 412.264 553.374 410.886 553.374 410.886C553.374 410.886 578.87 410.038 594.719 423.537C594.719 423.537 603.606 428.325 611.54 438.202C619.473 448.079 623.961 449.404 629.438 451.736" fill="#2ADB66"/>
    <path d="M586.627 468.698C581.238 490.095 569.099 529.602 546.837 532.606C517.648 536.546 511.287 521.775 516.023 512.145C522.737 498.505 534.61 497.374 534.61 497.374C524.38 412.264 553.374 410.886 553.374 410.886C553.374 410.886 578.87 410.038 594.719 423.537C594.719 423.537 603.606 428.325 611.54 438.202C619.473 448.079 623.961 449.404 629.438 451.736" stroke="black" stroke-width="5.30061" stroke-linecap="round" stroke-linejoin="round"/>
    <path d="M458.207 81.5458L450.139 79.9965L435.585 155.789L443.653 157.338L458.207 81.5458Z" fill="#6A6777" stroke="black" stroke-width="5.30061" stroke-miterlimit="10"/>
    <path d="M446.27 154.803L428.692 151.428C424.112 150.548 419.686 153.545 418.807 158.121C417.928 162.697 420.93 167.119 425.51 167.999L443.088 171.374C447.668 172.254 452.094 169.257 452.973 164.681C453.851 160.106 450.85 155.683 446.27 154.803Z" fill="#6A6777" stroke="black" stroke-width="5.30061" stroke-miterlimit="10"/>
    <path d="M461.373 211.477C449.217 210.593 442.627 206.512 440.878 187.765L440.33 168.348C440.206 164.195 440.506 160.026 441.231 155.926L444.588 136.791C448.122 121.437 456.143 115.412 468.299 116.296" fill="#5526C4"/>
    <path d="M461.373 211.477C449.217 210.593 442.627 206.512 440.878 187.765L440.33 168.348C440.206 164.195 440.506 160.026 441.231 155.926L444.588 136.791C448.122 121.437 456.143 115.412 468.299 116.296" stroke="black" stroke-width="5.30061" stroke-miterlimit="10"/>
    <path d="M483.404 119.353C483.774 114.253 479.94 109.819 474.84 109.449C469.74 109.079 465.306 112.913 464.936 118.013L458.313 209.297C457.943 214.397 461.777 218.831 466.877 219.201C471.977 219.571 476.411 215.737 476.781 210.637L483.404 119.353Z" fill="#5526C4" stroke="black" stroke-width="5.30061" stroke-miterlimit="10"/>
    <path d="M446.726 203.72C446.726 203.72 455.33 214.728 460.277 117.992L463.652 117.497L457.044 209.675C457.044 209.675 449.5 209.056 446.726 203.703V203.72Z" fill="#331889"/>
    <path d="M752.704 192.749L760.899 193.344L766.484 116.369L758.289 115.775L752.704 192.749Z" fill="#6A6777" stroke="black" stroke-width="5.30061" stroke-miterlimit="10"/>
    <path d="M746.441 206.213L764.292 207.508C768.944 207.846 772.989 204.352 773.326 199.705C773.663 195.057 770.165 191.016 765.513 190.679L747.662 189.384C743.01 189.046 738.965 192.54 738.628 197.187C738.29 201.834 741.788 205.875 746.441 206.213Z" fill="#6A6777" stroke="black" stroke-width="5.30061" stroke-miterlimit="10"/>
    <path d="M719.283 244.553C731.263 246.85 738.683 244.606 745.239 226.972L750.804 208.367C752.006 204.374 752.783 200.275 753.154 196.14L754.886 176.793C755.451 161.05 749.267 153.152 737.305 150.838" fill="#5526C4"/>
    <path d="M719.283 244.553C731.263 246.85 738.683 244.606 745.239 226.972L750.804 208.367C752.006 204.374 752.783 200.275 753.154 196.14L754.886 176.793C755.451 161.05 749.267 153.152 737.305 150.838" stroke="black" stroke-width="5.30061" stroke-miterlimit="10"/>
    <path d="M704.602 239.774C703.637 244.795 706.926 249.647 711.948 250.612C716.97 251.576 721.822 248.287 722.786 243.265L740.046 153.384C741.01 148.362 737.721 143.51 732.7 142.545C727.678 141.581 722.826 144.87 721.861 149.892L704.602 239.774Z" fill="#5526C4" stroke="black" stroke-width="5.30061" stroke-miterlimit="10"/>
    <path d="M725.556 144.778C725.556 144.778 715.467 205.77 714.866 249.783C714.866 249.783 704.972 250.242 705.555 241.92C706.05 234.87 723.542 147.764 723.542 147.764C723.542 147.764 724.107 145.661 725.556 144.76V144.778Z" fill="#331889"/>
    <path d="M741.299 153.153L723.842 244.058C723.842 244.058 731.228 244.995 735.963 240.542C734.938 222.167 734.779 194.603 745.31 155.22C745.31 155.22 744.161 153.93 741.299 153.153Z" fill="#331889"/>
    <path d="M480.031 87.0538C486.286 41.3272 548.639 12.1031 619.261 21.7856C689.9 31.468 742.076 76.3819 735.803 122.109C735.733 122.639 735.644 123.169 735.556 123.681C735.326 125.059 736.899 126.42 739.019 126.702L749.85 128.187C751.935 128.469 753.773 127.621 754.002 126.278C754.091 125.731 754.179 125.183 754.25 124.635C761.423 72.3004 701.703 20.9022 620.886 9.82387C540.069 -1.23674 468.741 32.2101 461.567 84.5272C461.497 85.0749 461.426 85.6226 461.373 86.1704C461.232 87.5309 462.769 88.856 464.854 89.1387L475.685 90.6229C477.805 90.9056 479.695 90.0221 479.837 88.644C479.89 88.1139 479.961 87.5839 480.031 87.0538Z" fill="#331889"/>
    <path d="M466.338 90.4816C473.264 39.8607 542.278 7.50933 620.48 18.2342C698.682 28.9415 756.441 78.6789 749.497 129.3C749.409 129.883 749.32 130.466 749.232 131.049C748.985 132.568 750.716 134.07 753.066 134.388L765.045 136.032C767.36 136.35 769.392 135.395 769.639 133.911C769.745 133.311 769.834 132.71 769.922 132.091C777.873 74.1557 711.774 17.2625 622.282 5.00038C532.808 -7.26171 453.829 29.7542 445.895 87.6899C445.807 88.2907 445.736 88.9091 445.666 89.5098C445.507 91.0117 447.221 92.4782 449.535 92.7962L461.515 94.4394C463.865 94.7574 465.949 93.7857 466.108 92.2485C466.179 91.6654 466.25 91.0823 466.32 90.4993L466.338 90.4816Z" fill="#5526C4" stroke="black" stroke-width="5.30061" stroke-linecap="round" stroke-linejoin="round"/>
    <defs>
        <filter id="filter0_f_34_885" x="473.352" y="404.35" width="230.299" height="165.299" filterUnits="userSpaceOnUse" color-interpolation-filters="sRGB">
            <feFlood flood-opacity="0" result="BackgroundImageFix"/>
            <feBlend mode="normal" in="SourceGraphic" in2="BackgroundImageFix" result="shape"/>
            <feGaussianBlur stdDeviation="8" result="effect1_foregroundBlur_34_885"/>
        </filter>
    </defs>
</svg>
